0
SECTION
2
HEADER
9
$INSUNITS
70
4
9
$ACADVER
1
AC1014
9
$HANDSEED
5
FFFF
0
ENDSEC
0
SECTION
2
TABLES
0
TABLE
2
VPORT
5
8
100
AcDbSymbolTable
0
ENDTAB
0
TABLE
2
LTYPE
5
5
100
AcDbSymbolTable
0
LTYPE
5
14
100
AcDbSymbolTableRecord
100
AcDbLinetypeTableRecord
2
BYBLOCK
70
0
0
LTYPE
5
15
100
AcDbSymbolTableRecord
100
AcDbLinetypeTableRecord
2
BYLAYER
70
0
0
ENDTAB
0
TABLE
2
LAYER
5
2
100
AcDbSymbolTable
70
2
0
LAYER
5
50
100
AcDbSymbolTableRecord
100
AcDbLayerTableRecord
2
0
70
0
6
CONTINUOUS
0
ENDTAB
0
TABLE
2
STYLE
5
3
100
AcDbSymbolTable
70
1
0
STYLE
5
11
100
AcDbSymbolTableRecord
100
AcDbTextStyleTableRecord
2
STANDARD
70
0
0
ENDTAB
0
TABLE
2
VIEW
5
6
100
AcDbSymbolTable
70
0
0
ENDTAB
0
TABLE
2
UCS
5
7
100
AcDbSymbolTable
70
0
0
ENDTAB
0
TABLE
2
APPID
5
9
100
AcDbSymbolTable
70
2
0
APPID
5
12
100
AcDbSymbolTableRecord
100
AcDbRegAppTableRecord
2
ACAD
70
0
0
ENDTAB
0
TABLE
2
DIMSTYLE
5
A
100
AcDbSymbolTable
70
1
0
ENDTAB
0
TABLE
2
BLOCK_RECORD
5
1
100
AcDbSymbolTable
70
1
0
BLOCK_RECORD
5
1F
100
AcDbSymbolTableRecord
100
AcDbBlockTableRecord
2
*MODEL_SPACE
0
BLOCK_RECORD
5
1B
100
AcDbSymbolTableRecord
100
AcDbBlockTableRecord
2
*PAPER_SPACE
0
ENDTAB
0
ENDSEC
0
SECTION
2
BLOCKS
0
BLOCK
5
20
100
AcDbEntity
100
AcDbBlockBegin
2
*MODEL_SPACE
0
ENDBLK
5
21
100
AcDbEntity
100
AcDbBlockEnd
0
BLOCK
5
1C
100
AcDbEntity
100
AcDbBlockBegin
2
*PAPER_SPACE
0
ENDBLK
5
1D
100
AcDbEntity
100
AcDbBlockEnd
0
ENDSEC
0
SECTION
2
ENTITIES
0
CIRCLE
5
100
100
AcDbEntity
8
0
100
AcDbCircle
10
1.9937311112880725
20
0.68053193390369426
30
0
40
50
210
-0
220
0
230
1
0
CIRCLE
5
101
100
AcDbEntity
8
0
100
AcDbCircle
10
-29.012537039816412
20
-30.238935425877557
30
0
40
0.75000000000000178
210
0
220
-0
230
1
0
CIRCLE
5
102
100
AcDbEntity
8
0
100
AcDbCircle
10
32.913198471069322
20
-30.325736217200756
30
0
40
0.75000000000000178
210
0
220
-0
230
1
0
CIRCLE
5
103
100
AcDbEntity
8
0
100
AcDbCircle
10
32.999999262392521
20
31.599999293684959
30
0
40
0.75000000000000178
210
0
220
-0
230
1
0
LWPOLYLINE
5
104
100
AcDbEntity
8
0
100
AcDbPolyline
90
6
70
1
43
0.0
10
38.684330034529559
20
0.68053193390368993
10
39.839030572908818
20
-1.3194680660963163
10
42.148431649667337
20
-1.3194680660963165
10
43.303132188046582
20
0.68053193390368971
10
42.148431649667337
20
2.6805319339036915
10
39.839030572908818
20
2.6805319339036915
0
CIRCLE
5
105
100
AcDbEntity
8
0
100
AcDbCircle
10
1.9937311112880725
20
0.68053193390369426
30
0
40
17.399999999999999
210
0
220
-0
230
1
0
CIRCLE
5
106
100
AcDbEntity
8
0
100
AcDbCircle
10
-28.925736248493212
20
31.686800085008162
30
0
40
0.75000000000000178
210
0
220
-0
230
1
0
LWPOLYLINE
5
107
100
AcDbEntity
8
0
100
AcDbPolyline
90
6
70
1
43
0.0
10
-0.31566733211057713
20
-43.065980522369287
10
0.83601158812434262
20
-45.06772201367626
10
3.1454100315229869
20
-45.071209557403279
10
4.3031295546867208
20
-43.072955609823325
10
3.1514506344518054
20
-41.071214118516352
10
0.84205219105315221
20
-41.067726574789333
0
LWPOLYLINE
5
108
100
AcDbEntity
8
0
100
AcDbPolyline
90
6
70
1
43
0.0
10
4.3031295546866941
20
44.434019477630713
10
3.1454100315229647
20
46.432273425210667
10
0.83601158812431597
20
46.428785881483648
10
-0.31566733211059489
20
44.427044390176675
10
0.84205219105313422
20
42.428790442596721
10
3.1514506344517832
20
42.43227798632374
0
LWPOLYLINE
5
109
100
AcDbEntity
8
0
100
AcDbPolyline
90
6
70
1
43
0.0
10
-35.851568350332677
20
2.6805319339037004
10
-38.160969427091189
20
2.6805319339036959
10
-39.315669965470448
20
0.68053193390369437
10
-38.160969427091189
20
-1.3194680660963074
10
-35.851568350332677
20
-1.3194680660963076
10
-34.696867811953425
20
0.68053193390369415
0
CIRCLE
5
110
100
AcDbEntity
8
0
100
AcDbCircle
10
40
20
15
30
0
40
3.5
210
-0
220
0
230
1
0
CIRCLE
5
111
100
AcDbEntity
8
0
100
AcDbCircle
10
1.9937311112880725
20
0.68053193390369426
30
0
40
20.25
210
0
220
0
230
1
0
ENDSEC
0
SECTION
2
OBJECTS
0
DICTIONARY
5
C
100
AcDbDictionary
3
ACAD_GROUP
350
D
3
ACAD_MLINESTYLE
350
17
0
DICTIONARY
5
D
100
AcDbDictionary
0
DICTIONARY
5
1A
330
C
100
AcDbDictionary
0
DICTIONARY
5
17
100
AcDbDictionary
0
ENDSEC
0
EOF
